<?xml version="1.0" encoding="UTF-8"?>
<svg id="b" data-name="Layer 2" xmlns="http://www.w3.org/2000/svg" viewBox="0 0 15.09 17.53">
  <g id="c" data-name="Closed Trash">
    <g>
      <polyline points=".59 2.81 3.4 17.28 11.72 17.28 14.54 2.81" fill="#95d7e5" stroke="#231f20" stroke-miterlimit="10" stroke-width=".5"/>
      <line x1="3.9" y1="5.96" x2="4.98" y2="14.13" fill="none" stroke="#231f20" stroke-miterlimit="10" stroke-width=".5"/>
      <line x1="7.49" y1="6" x2="7.49" y2="14.09" fill="none" stroke="#231f20" stroke-miterlimit="10" stroke-width=".5"/>
      <line x1="11.05" y1="5.96" x2="9.97" y2="14.13" fill="none" stroke="#231f20" stroke-miterlimit="10" stroke-width=".5"/>
      <path d="M.42,2.62c2.07-1.61,12.07-1.57,14.28.04l-.17.16c-2.14.72-11.95.72-13.95,0l-.16-.2Z" fill="#231f20" stroke="#231f20" stroke-miterlimit="10" stroke-width=".5"/>
      <path d="M.36,2.51c2.07-1.61,12.07-1.57,14.28.04l-.17.16c-2.14.72-11.95.72-13.95,0l-.16-.2Z" fill="#95d7e5" stroke="#231f20" stroke-miterlimit="10" stroke-width=".5"/>
      <polyline points="5.73 2.04 5.73 .25 9.26 .25 9.26 2.04" fill="none" stroke="#231f20" stroke-miterlimit="10" stroke-width=".5"/>
    </g>
  </g>
</svg>