<?xml version="1.0" encoding="UTF-8"?>
<svg id="b" data-name="Layer 2" xmlns="http://www.w3.org/2000/svg" viewBox="0 0 14.29 14.35">
  <g id="c" data-name="Menu">
    <rect x=".13" y=".2" width="13.99" height="13.79" rx="2.36" ry="2.36" fill="#e7f5f9" stroke-width="0"/>
    <path d="M7.12,5.11c-1.36,0-2.73,0-4.09,0-.13,0-.19-.03-.18-.24.01-.42,0-.42.3-.42,2.69,0,5.38-.02,8.07-.03.2,0,.2,0,.2.28q0,.4-.29.4c-1.34,0-2.67,0-4.01,0Z" fill="#000" stroke-width="0"/>
    <path d="M7.1,13.99c-1.58,0-3.15,0-4.73,0-.35,0-.66-.14-.96-.31-.43-.26-.74-.63-.93-1.09-.08-.21-.15-.44-.15-.67-.01-3.16-.01-6.32,0-9.48,0-.44.19-.83.45-1.18.46-.61,1.09-.9,1.83-.9,3,0,6-.01,9.01,0,.98,0,1.7.48,2.12,1.38.13.28.18.59.18.91,0,3.02.01,6.05,0,9.07,0,1.13-.72,1.99-1.82,2.24-.09.02-.19.03-.28.03-1.57,0-3.14,0-4.71,0h0ZM7.14,13.65h0c1.56,0,3.12,0,4.67,0,.04,0,.08,0,.12,0,1-.18,1.65-.96,1.65-1.99,0-2.98,0-5.97,0-8.95,0-.18-.02-.37-.06-.55-.21-.86-.92-1.46-1.89-1.47-3.01,0-6.02,0-9.03,0-.15,0-.31.02-.45.05-.89.21-1.48.96-1.48,1.88,0,3.03,0,6.06,0,9.09,0,.1-.01.2,0,.3.18.98.98,1.65,1.94,1.64,1.51-.01,3.02,0,4.53,0Z" fill="#000" stroke-width="0"/>
    <path d="M7.13,7.44c-1.37,0-2.74,0-4.12,0-.14,0-.18-.06-.17-.25,0-.41,0-.41.3-.41,2.69,0,5.39,0,8.08,0q.19,0,.19.27t-.28.38h-4.01Z" fill="#000" stroke-width="0"/>
    <path d="M7.13,9.76c-1.37,0-2.73,0-4.1,0q-.18,0-.18-.24,0-.4.3-.4c2.69,0,5.38,0,8.07,0q.2,0,.2.27t-.28.37c-1.34,0-2.67,0-4.01,0Z" fill="#000" stroke-width="0"/>
    <path d="M7.11,14.35c-1.65,0-3.31,0-4.96,0-.36,0-.7-.14-1.01-.33-.45-.27-.78-.66-.97-1.15-.09-.22-.16-.47-.16-.7C0,8.84,0,5.52,0,2.19c0-.46.2-.88.47-1.24C.96.31,1.62,0,2.4,0,5.56,0,8.71,0,11.87,0c1.03,0,1.79.5,2.22,1.45.14.3.19.62.19.95,0,3.18.01,6.36,0,9.54,0,1.19-.75,2.09-1.92,2.36-.1.02-.2.03-.3.03-1.65,0-3.3,0-4.95,0h0ZM7.16,13.99h0c1.64,0,3.27,0,4.91,0,.04,0,.08,0,.12,0,1.05-.19,1.74-1.01,1.74-2.09,0-3.14,0-6.28,0-9.42,0-.19-.02-.39-.07-.57-.22-.9-.97-1.54-1.98-1.54-3.16,0-6.32,0-9.49,0-.16,0-.32.02-.48.06C.98.65.36,1.43.36,2.4c0,3.19,0,6.37,0,9.56,0,.11-.01.21,0,.32.19,1.03,1.03,1.73,2.04,1.73,1.59-.01,3.17,0,4.76,0Z" fill="#000" stroke-width="0"/>
    <path d="M7.11,14.19c-1.63,0-3.25,0-4.88,0-.36,0-.68-.14-.99-.32-.45-.26-.77-.64-.96-1.12-.09-.22-.16-.46-.16-.69-.01-3.25-.01-6.5,0-9.75,0-.45.19-.86.46-1.22C1.07.46,1.72.16,2.49.16c3.1,0,6.2-.01,9.29,0,1.01,0,1.76.49,2.18,1.42.13.29.19.61.19.93,0,3.11.01,6.22,0,9.33,0,1.16-.74,2.05-1.88,2.31-.1.02-.2.03-.29.03-1.62,0-3.24,0-4.86,0h0ZM7.16,13.84h0c1.61,0,3.21,0,4.82,0,.04,0,.08,0,.12,0,1.04-.19,1.71-.99,1.71-2.04,0-3.07,0-6.14,0-9.21,0-.19-.02-.38-.07-.56-.22-.88-.95-1.5-1.95-1.51-3.11,0-6.21,0-9.32,0-.16,0-.32.02-.47.06-.92.22-1.53.99-1.53,1.93,0,3.12,0,6.23,0,9.35,0,.1-.01.21,0,.31.18,1.01,1.02,1.7,2,1.69,1.56-.01,3.12,0,4.67,0Z" fill="#95d7e5" stroke-width="0"/>
    <path d="M7.12,5c-1.34,0-2.68,0-4.02,0-.13,0-.18-.02-.18-.17.01-.3,0-.3.3-.3,2.65,0,5.29-.01,7.94-.02q.19,0,.19.2t-.29.28c-1.31,0-2.63,0-3.94,0Z" fill="#95d7e5" stroke-width="0"/>
    <path d="M7.13,7.33c-1.35,0-2.7,0-4.05,0-.14,0-.17-.04-.17-.18,0-.29,0-.29.3-.29,2.65,0,5.3,0,7.95,0q.19,0,.19.19t-.27.27h-3.94Z" fill="#95d7e5" stroke-width="0"/>
    <path d="M7.13,9.67c-1.34,0-2.69,0-4.03,0q-.18,0-.18-.17t.29-.29c2.64,0,5.29,0,7.93,0q.2,0,.2.19,0,.27-.27.27c-1.31,0-2.63,0-3.94,0Z" fill="#95d7e5" stroke-width="0"/>
  </g>
</svg>