<?xml version="1.0" encoding="UTF-8"?>
<svg id="b" data-name="Layer 2" xmlns="http://www.w3.org/2000/svg" viewBox="0 0 15.02 20.11">
  <g id="c" data-name="Open Trash">
    <g>
      <polyline points=".52 5.39 3.34 19.86 11.65 19.86 14.47 5.39" fill="#95d7e5" stroke="#231f20" stroke-miterlimit="10" stroke-width=".5"/>
      <line x1="3.83" y1="8.54" x2="4.91" y2="16.71" fill="none" stroke="#231f20" stroke-miterlimit="10" stroke-width=".5"/>
      <line x1="7.43" y1="8.58" x2="7.43" y2="16.67" fill="none" stroke="#231f20" stroke-miterlimit="10" stroke-width=".5"/>
      <line x1="10.99" y1="8.54" x2="9.9" y2="16.71" fill="none" stroke="#231f20" stroke-miterlimit="10" stroke-width=".5"/>
      <path d="M.36,5.2c2.07-1.61,12.07-1.57,14.28.04l-.17.16c-2.14.72-11.95.72-13.95,0l-.16-.2Z" fill="#5d878c" stroke="#231f20" stroke-miterlimit="10" stroke-width=".5"/>
      <path d="M.36,5.14C1.85,2.99,11.4.03,13.99.9l-.11.2C12.06,2.42,2.69,5.37.57,5.28l-.21-.14Z" fill="#95d7e5" stroke="#231f20" stroke-miterlimit="10" stroke-width=".5"/>
      <polyline points="5.34 3.07 4.81 1.37 8.17 .31 8.7 2.02" fill="none" stroke="#231f20" stroke-miterlimit="10" stroke-width=".5"/>
    </g>
  </g>
</svg>