<?xml version="1.0" encoding="UTF-8"?>
<svg id="b" data-name="Layer 2" xmlns="http://www.w3.org/2000/svg" viewBox="0 0 15.96 16.1">
  <g id="c" data-name="SaveHover">
    <g>
      <path d="M.25,2.3v12.33c0,.67.55,1.22,1.22,1.22h13.02c.67,0,1.22-.55,1.22-1.22V4.32c0-.29-.1-.58-.3-.8l-2.45-2.85c-.23-.27-.57-.43-.93-.43H2.3C1.17.25.25,1.17.25,2.3Z" fill="#95d7e5" stroke="#231f20" stroke-miterlimit="10" stroke-width=".5"/>
      <path d="M2.75.25l.08,3.6c0,.25.21.46.47.46h7.72l.07-4.06H2.75Z" fill="#faf39f" stroke="#231f20" stroke-miterlimit="10" stroke-width=".5"/>
      <path d="M2.39,8.04l9.17-.15c.53,0,.96.42.96.94v5.4H2.58c-.49,0-.88-.4-.86-.89l.14-4.78c0-.29.24-.52.54-.53Z" fill="#faf39f" stroke="#231f20" stroke-miterlimit="10" stroke-width=".5"/>
      <path d="M3.29,9.37c.5-.35,1.2-.36,1.74-.08.61.43,1.38.28,2.04.03.71-.29,1.56-.32,2.26.01.5.52,1.23.27,1.76.06-.55.34-1.31.51-1.84.03-.6-.26-1.46-.23-2.11.08-.69.3-1.61.49-2.25-.03-.39-.26-1.11-.28-1.6-.1h0Z" fill="#231f20" stroke-width="0"/>
      <path d="M3.3,11.05c.88.33,1.85.01,2.37-.05.41-.71,1.34-.37,1.87-.02.47.69,1.25.49,1.81,0,.22.22.53.32.85.28.29,0,.64-.2.89-.19-.29.09-.57.21-.88.26-.31.06-.65-.02-.89-.23h.07c-.54.53-1.47.72-1.96.02-.12-.05-.58-.29-.83-.3-.31-.05-.59.08-.73.35-.79.27-1.88.36-2.56-.11h0Z" fill="#231f20" stroke-width="0"/>
      <path d="M3.3,12.89c.6.87.76.73,1.02-.22.26-.43.81,0,1.1.14,0,0-.1,0-.1,0,.35-.25.8-.42,1.25-.39.45.02.86.19,1.24.38l-.1.02c.26-.2.71-.38.99-.26-.36.04-.67.21-.9.45-.79-.32-1.68-.55-2.42,0-.22-.14-.45-.32-.68-.37-.23-.07-.3.19-.37.44-.06.23-.28.61-.56.42-.18-.14-.43-.43-.45-.61h0Z" fill="#231f20" stroke-width="0"/>
      <g>
        <path d="M13.28,3.86c-1.21,1.95-3.93,6.03-4.15,6.83-.27.98-.22,1.32-.22,1.32,0,0,.87-.26,1.32-.75.46-.62,2.87-4.58,4.04-6.67-.44-.23-.67-.38-.99-.72Z" fill="#95d7e5" stroke="#231f20" stroke-miterlimit="10" stroke-width=".5"/>
        <g>
          <line x1="8.57" y1="12.6" x2="9.2" y2="11.6" fill="#fff" stroke-width="0"/>
          <polygon points="8.57 12.6 8.78 11.33 9.62 11.86 8.57 12.6 8.57 12.6" fill="#231f20" stroke-width="0"/>
        </g>
        <path d="M14.33,4.49s.79.28.71.69-1.84,2.92-1.84,2.92" fill="none" stroke="#231f20" stroke-miterlimit="10" stroke-width=".5"/>
        <path d="M11.29,6.95c.6.14.71.34,1.12.9l1.92-3.37-1.13-.83-1.91,3.29Z" fill="#faf39f" stroke="#231f20" stroke-miterlimit="10" stroke-width=".5"/>
        <path d="M14.2,4.73c.27-.48.28-.49.4-.74.04-1.14-.66-1.01-1.08-.75-.1.15-.15.16-.48.69.64.19.76.34,1.15.8Z" fill="#fff" stroke="#231f20" stroke-miterlimit="10" stroke-width=".5"/>
      </g>
      <rect x="8.57" y=".93" width="1.44" height="2.68" fill="#e0d992" stroke-width="0"/>
    </g>
  </g>
</svg>